<svg width="1526" height="1462" viewBox="0 0 1526 1462" fill="none" xmlns="http://www.w3.org/2000/svg">
<path d="M1315.29 537.202L757.812 1105.24C742.175 1121.17 715.154 1114.2 709.174 1092.7L495.978 325.886C489.998 304.378 509.544 284.462 531.161 290.037L1301.84 488.809C1323.45 494.384 1330.93 521.269 1315.29 537.202Z" stroke="#FF7A3D" stroke-opacity="0.2" stroke-width="2"/>
<path d="M1254.5 603.013L697.017 1171.05C681.38 1186.98 654.359 1180.01 648.379 1158.51L435.184 391.697C429.204 370.189 448.75 350.272 470.366 355.848L1241.04 554.619C1262.66 560.195 1270.13 587.08 1254.5 603.013Z" stroke="#FF7A3D" stroke-opacity="0.3" stroke-width="2"/>
<path d="M1195.85 660.857L638.368 1228.89C622.732 1244.83 595.711 1237.86 589.731 1216.35L376.535 449.541C370.555 428.033 390.101 408.117 411.718 413.692L1182.39 612.464C1204.01 618.039 1211.48 644.924 1195.85 660.857Z" stroke="#FF7A3D" stroke-opacity="0.4" stroke-width="2"/>
<path d="M1137.2 718.702L579.72 1286.74C564.083 1302.67 537.062 1295.7 531.082 1274.19L317.886 507.385C311.906 485.877 331.452 465.961 353.069 471.536L1123.74 670.308C1145.36 675.883 1152.83 702.769 1137.2 718.702Z" stroke="#FF7A3D" stroke-opacity="0.5" stroke-width="2"/>
</svg>
