<svg width="103" height="50" viewBox="0 0 103 50" fill="none" xmlns="http://www.w3.org/2000/svg">
<path d="M102.61 46.4244L92.2097 37.4323C98.6502 32.3115 100.945 26.1968 98.6433 20.2899C96.3414 14.383 89.6093 9.11115 79.7701 5.51053C69.9309 1.90991 57.6962 0.240936 45.4709 0.831645C33.2455 1.42235 21.9136 4.23003 13.7024 8.70281C5.49123 13.1756 0.994673 18.99 1.09654 25.0032C1.19841 31.0164 5.89134 36.7935 14.2529 41.199C22.6145 45.6045 34.04 48.3198 46.2837 48.8112C58.5274 49.3026 70.7038 47.5345 80.4197 43.8545L102.61 46.4244Z" fill="white"/>
<path d="M102.61 46.4243L80.3497 43.9279H80.1597L80.2797 43.8496L80.4597 43.9377C77.3413 45.1228 73.9478 46.1234 70.3497 46.9187C66.0661 47.857 61.5301 48.49 56.8797 48.7984C54.3029 48.9741 51.6995 49.038 49.0997 48.9893C47.7697 48.9551 46.3997 48.9355 45.0297 48.8816L40.8797 48.5733C28.511 47.3748 17.5421 43.912 10.2097 38.8909C6.11646 36.1169 3.28615 32.9454 1.90971 29.5904C0.489221 26.0479 0.687288 22.3955 2.48971 18.8949C4.34333 15.2359 7.95322 11.8461 13.0197 9.00697L15.0197 7.92518C15.6797 7.56295 16.4697 7.26435 17.1797 6.94618C17.8885 6.60148 18.6328 6.27472 19.4097 5.96718L21.7697 5.10566C22.5462 4.82394 23.3614 4.56879 24.2097 4.34204L26.6997 3.60289L29.3097 2.99102C30.159 2.77128 31.0376 2.57993 31.9397 2.4183C38.9274 1.06706 46.4452 0.500009 53.9397 0.7589C61.0311 1.00219 67.9268 2.0048 74.1397 3.6959C85.3079 6.73815 93.6577 11.7666 97.4597 17.7397C98.9869 20.2814 99.7086 22.9228 99.5997 25.5717C99.4693 27.8666 98.6609 30.1403 97.1997 32.3219C95.9787 34.1372 94.3239 35.8755 92.2697 37.5008V37.4371L102.58 46.4586C102.14 46.0817 98.7997 43.2475 92.0497 37.4959V37.4665V37.4371C94.0708 35.8155 95.6985 34.0841 96.8997 32.2778C98.3253 30.1065 99.1099 27.8467 99.2297 25.5668C99.3169 22.9416 98.5851 20.3253 97.0597 17.8082C93.2623 11.8944 84.972 6.91994 73.8997 3.91128C67.7432 2.24676 60.9165 1.26264 53.8997 1.02812C46.4756 0.77211 39.0289 1.33587 32.1097 2.67774C31.2176 2.83774 30.3489 3.02745 29.5097 3.24556L26.9297 3.85743L24.4597 4.59168C23.6154 4.82123 22.8096 5.08311 22.0497 5.37488L19.7097 6.22661C18.9197 6.50073 18.2497 6.85807 17.5097 7.16645C16.7697 7.47484 16.0297 7.79301 15.3697 8.14545L13.3697 9.21256C8.35736 12.0245 4.78545 15.3805 2.94971 19.0026C1.1649 22.4677 0.963441 26.0829 2.3597 29.5904C3.7232 32.9073 6.51897 36.0432 10.5597 38.7882C17.8393 43.7529 28.6972 47.1801 40.9397 48.3775L45.0497 48.6858C46.4097 48.7446 47.7697 48.7593 49.0497 48.7984C51.6286 48.8494 54.2117 48.7905 56.7697 48.6222C65.3189 48.0681 73.4163 46.4164 80.2397 43.8349L81.0197 43.5412L80.4197 43.9279L80.3397 43.8251L102.61 46.4243Z" fill="#263238"/>
<path d="M39.6797 24.8375C39.6797 25.2247 39.4451 25.6033 39.0056 25.9253C38.566 26.2473 37.9413 26.4982 37.2104 26.6464C36.4795 26.7946 35.6753 26.8334 34.8993 26.7578C34.1234 26.6823 33.4107 26.4958 32.8513 26.222C32.2919 25.9481 31.9109 25.5993 31.7566 25.2194C31.6022 24.8396 31.6814 24.4459 31.9842 24.0882C32.2869 23.7304 32.7996 23.4246 33.4574 23.2094C34.1152 22.9943 34.8886 22.8795 35.6797 22.8795C36.7406 22.8795 37.758 23.0857 38.5081 23.4529C39.2583 23.8201 39.6797 24.3182 39.6797 24.8375Z" fill="#263238"/>
<path d="M55.6396 24.8375C55.6396 25.2247 55.405 25.6033 54.9655 25.9253C54.526 26.2473 53.9013 26.4982 53.1704 26.6464C52.4395 26.7946 51.6352 26.8334 50.8593 26.7578C50.0834 26.6823 49.3706 26.4958 48.8112 26.222C48.2518 25.9481 47.8709 25.5993 47.7165 25.2194C47.5622 24.8396 47.6414 24.4459 47.9441 24.0882C48.2469 23.7304 48.7596 23.4246 49.4174 23.2094C50.0752 22.9943 50.8485 22.8795 51.6396 22.8795C52.7005 22.8795 53.7179 23.0857 54.4681 23.4529C55.2182 23.8201 55.6396 24.3182 55.6396 24.8375Z" fill="#263238"/>
<path d="M71.5696 23.8584C71.9675 24.1937 72.153 24.5792 72.1028 24.9661C72.0526 25.353 71.7688 25.7239 71.2875 26.0318C70.8063 26.3397 70.1491 26.5707 69.3993 26.6956C68.6495 26.8204 67.8408 26.8335 67.0758 26.7332C66.3108 26.6329 65.6238 26.4237 65.1019 26.132C64.5801 25.8404 64.2468 25.4795 64.1444 25.0951C64.042 24.7106 64.1751 24.32 64.5267 23.9726C64.8783 23.6252 65.4327 23.3368 66.1196 23.1438C67.0366 22.8861 68.1246 22.8167 69.1459 22.9506C70.1672 23.0845 71.0386 23.4109 71.5696 23.8584Z" fill="#263238"/>
</svg>
