<svg width="527" height="601" viewBox="0 0 527 601" fill="none" xmlns="http://www.w3.org/2000/svg">
<g clip-path="url(#clip0_10_195)">
<path d="M252.937 563.235L252.268 548.182C252.198 548.145 252.128 548.108 252.059 548.072C244.885 544.308 236.663 551.122 238.954 558.892C241.11 566.203 242.559 574.085 246.505 580.485C248.837 584.202 251.975 587.346 255.687 589.686C259.399 592.025 263.59 593.499 267.949 593.999L277.064 599.579C278.314 592.607 278.038 585.447 276.255 578.591C274.472 571.736 271.224 565.349 266.735 559.87C264.186 556.822 261.263 554.106 258.036 551.788C255.853 557.543 252.937 563.235 252.937 563.235Z" fill="#F2F2F2"/>
<path d="M171.337 410.471C153.79 392.375 128.362 381.997 101.573 381.997L100.54 381.999C82.8945 382.006 65.5641 377.326 50.3211 368.437L48.7349 367.513L50.0124 366.197C56.9288 359.041 62.704 350.865 67.1357 341.954C63.9882 344.888 60.2342 347.095 56.1394 348.418C52.0446 349.741 47.709 350.147 43.4397 349.609C38.9322 349.071 34.605 347.52 30.7826 345.072C26.9601 342.624 23.7417 339.342 21.3687 335.472C12.0056 320.28 0.844727 298.724 0.844727 282.303C0.859302 268.423 3.76558 254.698 9.37832 242.003C14.9911 229.308 23.1871 217.922 33.4441 208.57C39.9376 202.715 45.1243 195.557 48.666 187.563C52.2077 179.568 54.0248 170.918 53.9989 162.174L53.9937 160.93C53.9919 149.419 55.3986 137.95 58.1824 126.781L58.4651 125.653L59.6256 125.693C67.1092 125.948 74.5967 125.321 81.9336 123.825C75.0516 122.98 68.3191 121.19 61.9271 118.503L60.6787 117.998L61.1024 116.719C90.3086 98.6357 156.235 108 194.501 20.4503C225.53 -50.5407 335.008 83.4691 335.008 160.93C335.008 168.834 327.186 179.279 333.042 184.503C396.342 240.976 352.666 277.24 338.895 313.73C335.628 322.387 342.712 331.892 342.712 341.258C342.712 342.848 342.672 344.488 342.592 346.134L342.47 348.665L340.359 347.261C336.184 344.526 332.314 341.351 328.814 337.791C332.445 346.145 334.155 355.207 333.821 364.309C333.487 373.411 331.115 382.323 326.882 390.388C320.248 402.908 313.831 411.872 307.807 417.028C288.512 433.54 263.638 442.058 238.271 440.839C212.904 439.62 188.961 428.757 171.337 410.471Z" fill="#E6E6E6"/>
<path d="M277.316 598.836C277.747 598.836 278.164 598.68 278.489 598.397C278.815 598.114 279.028 597.723 279.088 597.296C279.165 596.761 286.626 542.95 279.925 471.434C273.736 405.388 253.863 310.257 194.331 232.128C194.188 231.94 194.01 231.783 193.807 231.664C193.603 231.545 193.378 231.468 193.145 231.436C192.911 231.404 192.674 231.419 192.446 231.479C192.218 231.539 192.004 231.644 191.817 231.787C191.629 231.93 191.472 232.108 191.353 232.312C191.235 232.515 191.158 232.74 191.127 232.974C191.095 233.208 191.11 233.445 191.171 233.673C191.231 233.901 191.336 234.114 191.479 234.301C250.497 311.756 270.21 406.188 276.354 471.769C283.016 542.869 275.614 596.259 275.538 596.79C275.502 597.045 275.521 597.304 275.594 597.55C275.667 597.797 275.792 598.025 275.96 598.219C276.129 598.413 276.337 598.568 276.571 598.675C276.805 598.781 277.059 598.836 277.316 598.836Z" fill="#3F3D56"/>
<path d="M228.734 342.333C229.113 342.333 229.482 342.213 229.788 341.991C230.095 341.769 230.323 341.455 230.44 341.095C230.557 340.735 230.558 340.347 230.441 339.986C230.324 339.626 230.096 339.312 229.789 339.089C229.573 338.932 207.795 323.24 175.236 311.319C145.138 300.3 99.3694 290.31 52.2515 305.306C52.0268 305.377 51.8183 305.492 51.638 305.644C51.4577 305.796 51.3091 305.981 51.2006 306.191C51.0922 306.4 51.0261 306.628 51.0061 306.863C50.9861 307.098 51.0126 307.335 51.084 307.559C51.1555 307.784 51.2706 307.992 51.4226 308.172C51.5746 308.352 51.7607 308.5 51.9701 308.608C52.1795 308.717 52.4082 308.782 52.6431 308.802C52.8779 308.822 53.1143 308.795 53.3388 308.723C99.4914 294.035 144.43 303.859 174.003 314.686C206.097 326.437 227.469 341.836 227.681 341.99C227.987 342.213 228.356 342.333 228.734 342.333Z" fill="#3F3D56"/>
<path d="M310.793 137.955C310.82 137.577 310.728 137.2 310.528 136.878C310.328 136.557 310.032 136.306 309.681 136.163C309.33 136.021 308.943 135.993 308.575 136.083C308.208 136.174 307.878 136.379 307.634 136.668C307.462 136.872 290.242 157.464 276.007 189.08C262.849 218.306 249.589 263.237 261.153 311.312C261.264 311.774 261.555 312.174 261.96 312.422C262.366 312.67 262.853 312.747 263.315 312.636C263.778 312.525 264.177 312.234 264.425 311.829C264.673 311.423 264.75 310.936 264.639 310.474C253.313 263.383 266.348 219.268 279.277 190.552C293.309 159.388 310.206 139.18 310.375 138.98C310.62 138.691 310.766 138.332 310.793 137.955Z" fill="#3F3D56"/>
<path d="M308.366 230.404C309.879 242.609 318.336 252.672 330.634 252.672C336.54 252.672 342.204 250.326 346.38 246.15C350.556 241.974 352.902 236.31 352.902 230.404C352.902 218.106 342.88 209.273 330.634 208.136C317.641 206.929 306.424 214.734 308.366 230.404Z" fill="#2F2E41"/>
<path d="M340.948 589.028L349.428 589.027L353.461 556.319L340.946 556.32L340.948 589.028Z" fill="#FFB6B6"/>
<path d="M340.65 597.874L366.726 597.873V597.543C366.726 594.852 365.657 592.27 363.753 590.367C361.85 588.463 359.268 587.394 356.577 587.394L351.813 583.78L342.926 587.394L340.649 587.394L340.65 597.874Z" fill="#2F2E41"/>
<path d="M307.546 589.028L316.026 589.027L320.06 556.319L307.544 556.32L307.546 589.028Z" fill="#FFB6B6"/>
<path d="M307.248 597.874L333.324 597.873V597.543C333.324 594.852 332.255 592.27 330.351 590.367C328.448 588.463 325.867 587.394 323.175 587.394L318.411 583.78L309.524 587.394L307.248 587.394L307.248 597.874Z" fill="#2F2E41"/>
<path d="M370.129 384.171L376.124 404.726L369.061 491.781C369.061 491.781 372.698 497.224 370.129 497.224C367.56 497.224 364.265 498.431 366.341 501.681C368.416 504.932 361.322 516.602 361.322 516.602L351.287 578.587L338.501 578.398C338.501 578.398 332 574.777 335.648 571.115C339.297 567.453 341.866 567.453 338.44 564.027C335.014 560.601 335.014 561.633 335.014 558.976C335.014 556.319 331.582 523.848 339.722 511.392L337.269 460.608L331.492 510.421L319.598 576.874L307.281 576.773C307.281 576.773 301.591 571.289 301.602 567.23C301.612 563.171 305.117 562.834 302.508 560.433C299.9 558.032 299.9 521.15 307.608 500.649C307.608 500.649 311.968 489.195 307.598 485.27C303.228 481.345 307.592 476.854 307.592 476.854C307.592 476.854 314.514 474.352 307.586 467.143C300.658 459.934 307.549 408.948 307.549 408.948C307.549 408.948 299.975 388.366 307.646 380.274C315.316 372.181 370.129 384.171 370.129 384.171Z" fill="#2F2E41"/>
<path d="M263.351 419.586L274.047 393.736L282.475 398.418L277.385 424.714C277.895 426.379 277.93 428.155 277.486 429.839C277.042 431.524 276.137 433.051 274.873 434.25C273.609 435.449 272.035 436.271 270.329 436.624C268.623 436.977 266.852 436.848 265.216 436.25C263.58 435.652 262.142 434.609 261.066 433.24C259.99 431.87 259.317 430.227 259.123 428.495C258.929 426.764 259.222 425.013 259.969 423.439C260.716 421.865 261.887 420.53 263.351 419.586Z" fill="#FFB6B6"/>
<path d="M442.842 215.175L426.566 237.928L419.419 231.459L430.334 207C430.215 205.262 430.583 203.525 431.397 201.985C432.211 200.444 433.439 199.162 434.942 198.281C436.445 197.4 438.164 196.956 439.906 196.998C441.647 197.041 443.342 197.568 444.801 198.521C446.259 199.474 447.423 200.815 448.161 202.393C448.899 203.972 449.182 205.724 448.978 207.454C448.775 209.185 448.093 210.824 447.009 212.188C445.924 213.551 444.482 214.586 442.842 215.175Z" fill="#FFB6B6"/>
<path d="M371.744 386.279C382.3 402.653 329.237 423.432 308.876 415.09C305.311 413.629 293.047 408.804 301.43 402.115C309.813 395.426 300.458 394.484 300.237 390.13C300.089 387.219 302.343 380.832 299.991 381.106C297.64 381.38 294.887 377.354 300.009 375.621C305.131 373.889 300.064 372.309 300.109 370.664C300.598 352.717 314.369 324.17 314.369 324.17L289.556 387.596C289.556 387.596 289.739 398.57 286.575 395.216C283.411 391.863 283.641 402.716 283.641 402.716C283.641 402.716 278.936 406 281.642 407.827C284.347 409.654 278.729 415.273 278.729 415.273L265.62 414.336C265.62 414.336 265.825 404.598 268.063 402.444C270.302 400.291 269.202 396.902 269.202 396.902C269.202 396.902 275.03 391.743 271.123 387.554C266.098 382.167 284.419 291.177 290.741 292.078C291.635 287.728 293.714 283.71 296.75 280.467C299.785 277.225 303.657 274.885 307.939 273.706L322.098 269.807L324.612 259.832H344.549L348.022 266.387L363.18 273.227C366.035 269.198 368.168 264.953 379.859 263.577C379.859 263.577 411.362 234.915 409.824 232.676C408.286 230.438 413.169 225.199 413.169 225.199C413.169 225.199 417.34 223.834 414.987 223.105C412.633 222.376 417.081 220.691 417.081 220.691C417.081 220.691 421.201 219.609 419.258 218.183C417.315 216.758 425.743 215.821 425.743 215.821L436.677 224.743L434.467 228.49C434.467 228.49 435.814 233.593 434.056 231.73C432.297 229.867 431.966 235.273 431.966 235.273C431.966 235.273 431.068 241.193 425.743 242.977C420.417 244.76 416.379 261.705 416.379 261.705C403.819 278.035 388.997 290.774 371.432 299.16C378.277 307.018 371.744 386.279 371.744 386.279Z" fill="#FF7A3D"/>
<path d="M333.096 253.994C344.001 253.994 352.842 245.153 352.842 234.248C352.842 223.342 344.001 214.502 333.096 214.502C322.19 214.502 313.349 223.342 313.349 234.248C313.349 245.153 322.19 253.994 333.096 253.994Z" fill="#FFB6B6"/>
<path d="M312.649 236.399C313.274 240.69 316.931 246.676 316.075 246.676C315.218 246.676 309.129 228.988 315.218 227.834C319.635 226.998 320.622 227.732 324.75 225.942L324.168 226.49C326.9 228.477 330.703 227.252 333.82 225.959C336.946 224.674 340.74 223.449 343.481 225.428C345.203 226.67 345.931 228.828 347.001 230.661C348.072 232.502 350.05 234.241 352.088 233.675C353.724 233.222 354.666 231.389 354.658 229.693C354.649 227.997 352.441 226.384 353.185 224.863C355.389 220.354 353.407 217.281 348.603 215.159C346.856 214.893 345.108 214.622 343.361 214.345C344.277 213.077 345.387 211.961 346.65 211.039C346.116 209.671 345.193 208.489 343.995 207.639C342.599 206.808 340.869 206.868 339.25 206.954C335.636 207.142 332.025 207.331 328.416 207.519C325.744 207.656 322.978 207.819 320.588 209.044C317.608 210.577 315.655 213.566 314.233 216.606C311.047 223.441 311.552 228.939 312.649 236.399Z" fill="#2F2E41"/>
<path d="M230.506 600.099L424.707 600.362C424.978 600.362 425.237 600.255 425.428 600.063C425.619 599.872 425.727 599.613 425.727 599.342C425.727 599.072 425.619 598.812 425.428 598.621C425.237 598.43 424.978 598.322 424.707 598.322L230.506 598.059C230.235 598.059 229.976 598.167 229.784 598.358C229.593 598.549 229.486 598.809 229.486 599.079C229.486 599.349 229.593 599.609 229.784 599.8C229.976 599.991 230.235 600.099 230.506 600.099Z" fill="#CACACA"/>
<path d="M160.268 511.206C160.626 508.746 158.049 506.334 154.511 505.819C150.974 505.304 147.817 506.882 147.459 509.343C147.101 511.803 149.678 514.215 153.215 514.73C156.752 515.244 159.91 513.667 160.268 511.206Z" fill="#E6E6E6"/>
<path d="M202.381 507.097C202.739 504.636 200.162 502.224 196.625 501.71C193.088 501.195 189.93 502.773 189.572 505.233C189.214 507.694 191.791 510.106 195.328 510.62C198.865 511.135 202.023 509.557 202.381 507.097Z" fill="#3F3D56"/>
<path d="M148.736 477.112C149.094 474.652 146.517 472.24 142.98 471.725C139.442 471.21 136.285 472.788 135.927 475.249C135.569 477.709 138.146 480.121 141.683 480.636C145.22 481.15 148.378 479.573 148.736 477.112Z" fill="#FF6584"/>
<path d="M130.437 463.147C130.454 460.888 129.194 459.047 127.622 459.035C126.051 459.023 124.763 460.845 124.746 463.104C124.729 465.363 125.989 467.204 127.56 467.216C129.132 467.227 130.42 465.406 130.437 463.147Z" fill="#E6E6E6"/>
<path d="M124.231 437.135C124.248 434.876 122.988 433.035 121.417 433.023C119.845 433.011 118.557 434.833 118.54 437.092C118.523 439.351 119.783 441.192 121.355 441.204C122.926 441.215 124.214 439.394 124.231 437.135Z" fill="#3F3D56"/>
<path d="M172.488 482.914C172.505 480.655 171.245 478.814 169.674 478.802C168.102 478.791 166.814 480.612 166.797 482.871C166.78 485.13 168.04 486.971 169.612 486.983C171.183 486.995 172.471 485.173 172.488 482.914Z" fill="#E6E6E6"/>
<path d="M152.137 493.075C152.154 490.816 150.894 488.975 149.323 488.964C147.751 488.952 146.464 490.773 146.446 493.032C146.429 495.291 147.689 497.132 149.261 497.144C150.832 497.156 152.12 495.334 152.137 493.075Z" fill="#FF6584"/>
<path d="M180.466 511.855C180.483 509.596 179.223 507.756 177.652 507.744C176.081 507.732 174.793 509.553 174.776 511.812C174.759 514.071 176.019 515.912 177.59 515.924C179.162 515.936 180.449 514.114 180.466 511.855Z" fill="#3F3D56"/>
<path d="M484.008 379.312C484.366 376.851 481.789 374.439 478.252 373.925C474.715 373.41 471.557 374.988 471.199 377.448C470.841 379.909 473.418 382.321 476.955 382.835C480.493 383.35 483.65 381.773 484.008 379.312Z" fill="#E6E6E6"/>
<path d="M526.121 375.203C526.479 372.742 523.902 370.33 520.365 369.816C516.828 369.301 513.67 370.878 513.312 373.339C512.954 375.8 515.532 378.211 519.069 378.726C522.606 379.241 525.763 377.663 526.121 375.203Z" fill="#3F3D56"/>
<path d="M472.476 345.218C472.834 342.757 470.256 340.346 466.719 339.831C463.182 339.316 460.025 340.894 459.667 343.354C459.309 345.815 461.886 348.227 465.423 348.742C468.96 349.256 472.118 347.679 472.476 345.218Z" fill="#FF6584"/>
<path d="M454.177 331.253C454.194 328.994 452.934 327.153 451.363 327.141C449.791 327.129 448.503 328.951 448.486 331.21C448.469 333.469 449.729 335.309 451.301 335.321C452.872 335.333 454.16 333.512 454.177 331.253Z" fill="#E6E6E6"/>
<path d="M447.971 305.241C447.988 302.982 446.728 301.141 445.157 301.129C443.586 301.117 442.298 302.939 442.281 305.198C442.264 307.457 443.524 309.297 445.095 309.309C446.667 309.321 447.954 307.5 447.971 305.241Z" fill="#3F3D56"/>
<path d="M496.229 351.02C496.246 348.761 494.986 346.92 493.414 346.908C491.843 346.896 490.555 348.718 490.538 350.977C490.521 353.236 491.781 355.077 493.352 355.089C494.924 355.1 496.211 353.279 496.229 351.02Z" fill="#E6E6E6"/>
<path d="M475.878 361.181C475.895 358.922 474.635 357.081 473.063 357.069C471.492 357.057 470.204 358.879 470.187 361.138C470.17 363.397 471.43 365.238 473.001 365.25C474.573 365.261 475.86 363.44 475.878 361.181Z" fill="#FF6584"/>
<path d="M504.207 379.961C504.224 377.702 502.964 375.861 501.392 375.849C499.821 375.838 498.533 377.659 498.516 379.918C498.499 382.177 499.759 384.018 501.331 384.03C502.902 384.042 504.19 382.22 504.207 379.961Z" fill="#3F3D56"/>
<path d="M327.277 135.222C327.635 132.761 325.058 130.349 321.52 129.835C317.983 129.32 314.826 130.898 314.468 133.358C314.11 135.819 316.687 138.231 320.224 138.745C323.761 139.26 326.919 137.683 327.277 135.222Z" fill="white"/>
<path d="M369.39 131.113C369.748 128.652 367.171 126.24 363.634 125.725C360.097 125.211 356.939 126.788 356.581 129.249C356.223 131.71 358.8 134.121 362.337 134.636C365.874 135.151 369.032 133.573 369.39 131.113Z" fill="#3F3D56"/>
<path d="M315.745 101.128C316.103 98.6674 313.526 96.2555 309.989 95.7409C306.451 95.2262 303.294 96.8037 302.936 99.2643C302.578 101.725 305.155 104.137 308.692 104.652C312.229 105.166 315.387 103.589 315.745 101.128Z" fill="#FF6584"/>
<path d="M297.446 87.1626C297.463 84.9037 296.203 83.0628 294.631 83.0509C293.06 83.039 291.772 84.8606 291.755 87.1196C291.738 89.3785 292.998 91.2193 294.569 91.2312C296.141 91.2431 297.428 89.4215 297.446 87.1626Z" fill="#E6E6E6"/>
<path d="M291.24 61.1507C291.257 58.8918 289.997 57.0509 288.425 57.039C286.854 57.0271 285.566 58.8487 285.549 61.1077C285.532 63.3666 286.792 65.2074 288.364 65.2193C289.935 65.2312 291.223 63.4096 291.24 61.1507Z" fill="#3F3D56"/>
<path d="M339.497 106.93C339.514 104.671 338.254 102.83 336.683 102.818C335.111 102.806 333.824 104.628 333.806 106.887C333.789 109.146 335.049 110.987 336.621 110.999C338.192 111.01 339.48 109.189 339.497 106.93Z" fill="#E6E6E6"/>
<path d="M319.146 117.091C319.163 114.832 317.903 112.991 316.332 112.979C314.76 112.967 313.473 114.789 313.455 117.048C313.438 119.307 314.698 121.148 316.27 121.16C317.841 121.171 319.129 119.35 319.146 117.091Z" fill="#FF6584"/>
<path d="M347.475 135.871C347.492 133.612 346.232 131.771 344.661 131.759C343.09 131.748 341.802 133.569 341.785 135.828C341.768 138.087 343.028 139.928 344.599 139.94C346.171 139.952 347.458 138.13 347.475 135.871Z" fill="#3F3D56"/>
<path d="M364.224 304.991C363.79 304.614 363.236 304.397 362.561 304.342C362.959 304.057 363.266 303.662 363.445 303.206C363.624 302.751 363.667 302.253 363.569 301.773C363.487 301.342 363.289 300.942 362.998 300.614C362.731 300.308 362.397 300.066 362.023 299.907C361.649 299.747 361.243 299.675 360.837 299.695C360.207 299.738 359.581 299.83 358.965 299.969L354.785 300.821L355.563 304.638C354.785 303.998 353.937 303.772 353.02 303.959C352.615 304.036 352.231 304.2 351.895 304.438C351.605 304.634 351.371 304.902 351.216 305.216C351.084 305.506 351.014 305.821 351.009 306.14C351.017 306.604 351.073 307.066 351.176 307.519L352.141 312.254L354.08 311.859L353.287 307.97C353.119 307.148 353.052 306.607 353.086 306.348C353.108 306.105 353.21 305.875 353.376 305.696C353.542 305.517 353.764 305.398 354.005 305.359C354.328 305.289 354.666 305.325 354.967 305.462C355.268 305.593 355.516 305.822 355.672 306.111C355.836 306.407 356.004 306.98 356.178 307.831L356.881 311.283L360.474 310.55C361.818 310.266 362.662 310.069 363.007 309.96C363.505 309.814 363.958 309.544 364.322 309.175C364.655 308.82 364.892 308.385 365.009 307.913C365.137 307.438 365.153 306.94 365.056 306.457C364.952 305.889 364.659 305.372 364.224 304.991ZM357.25 302.132L358.46 301.885C359.454 301.682 360.058 301.572 360.272 301.552C360.633 301.523 360.923 301.591 361.143 301.758C361.372 301.94 361.525 302.202 361.571 302.492C361.608 302.64 361.614 302.795 361.59 302.947C361.565 303.098 361.51 303.243 361.427 303.372C361.239 303.638 360.965 303.832 360.651 303.921C360.456 303.985 359.945 304.101 359.119 304.27L357.743 304.55L357.25 302.132ZM362.74 307.756C362.584 308.021 362.343 308.224 362.055 308.331C361.859 308.416 361.381 308.536 360.62 308.69L358.667 309.088L358.097 306.291L359.799 305.944C360.759 305.749 361.393 305.672 361.699 305.713C361.982 305.743 362.248 305.864 362.457 306.057C362.661 306.261 362.798 306.524 362.847 306.809C362.932 307.127 362.894 307.465 362.74 307.756Z" fill="white"/>
<path d="M352.703 303.249C353.244 303.139 353.594 302.611 353.483 302.07C353.373 301.528 352.845 301.179 352.304 301.289C351.762 301.4 351.413 301.928 351.523 302.469C351.634 303.01 352.162 303.36 352.703 303.249Z" fill="white"/>
</g>
<defs>
<clipPath id="clip0_10_195">
<rect width="525.31" height="600" fill="white" transform="translate(0.844727 0.361938)"/>
</clipPath>
</defs>
</svg>
