<svg width="560" height="453" viewBox="0 0 560 453" fill="none" xmlns="http://www.w3.org/2000/svg">
<g clip-path="url(#clip0_10_400)">
<path d="M446.764 82.5151C443.86 114.483 435.587 148.192 422.613 180.716C406.568 220.936 384.648 256.363 359.22 283.164L357.808 281.935C383.113 255.262 404.934 219.992 420.912 179.938C435.352 143.742 443.94 106.074 445.76 71.0242L447.564 71.3258C447.372 75.0275 447.106 78.7573 446.764 82.5151Z" fill="#F2F2F2"/>
<path d="M458.329 268.179C422.614 324.952 379.284 365.516 336.32 382.399L335.451 380.807C378.117 364.041 421.194 323.684 456.746 267.171L458.329 268.179Z" fill="#F2F2F2"/>
<path d="M445.897 122.317C442.993 154.285 434.72 187.993 421.746 220.517C405.702 260.738 383.781 296.164 358.353 322.966L356.942 321.736C382.247 295.063 404.068 259.794 420.045 219.74C434.485 183.543 443.073 145.876 444.894 110.826L446.697 111.127C446.506 114.829 446.239 118.559 445.897 122.317Z" fill="#F2F2F2"/>
<path d="M44.949 204.388H21.5156C21.0149 204.389 20.5205 204.277 20.0694 204.06C19.6184 203.843 19.2224 203.526 18.9111 203.135C18.6037 202.753 18.3867 202.306 18.2766 201.829C18.1665 201.351 18.1661 200.855 18.2754 200.377C20.5072 190.538 20.367 180.309 17.8664 170.535C17.7082 169.891 17.7464 169.215 17.9762 168.593C18.2059 167.972 18.6166 167.433 19.1554 167.046C31.205 158.387 40.6943 158.639 47.3602 167.794C47.6607 168.212 47.8603 168.693 47.9434 169.2C49.7245 179.899 49.823 190.809 48.2355 201.538C48.1252 202.33 47.7315 203.055 47.1272 203.579C46.523 204.103 45.7491 204.39 44.949 204.388Z" fill="#E6E6E6"/>
<path d="M37.684 180.941H29.6229C29.1771 180.941 28.7496 180.764 28.4344 180.449C28.1192 180.134 27.9421 179.707 27.9421 179.262C27.9421 178.816 28.1192 178.389 28.4344 178.074C28.7496 177.759 29.1771 177.583 29.6229 177.583H37.684C38.1292 177.583 38.5558 177.761 38.8702 178.076C39.1847 178.39 39.3613 178.817 39.3613 179.262C39.3613 179.707 39.1847 180.133 38.8702 180.448C38.5558 180.763 38.1292 180.94 37.684 180.941Z" fill="white"/>
<path d="M37.684 186.831H29.6229C29.1771 186.831 28.7496 186.654 28.4344 186.339C28.1192 186.024 27.9421 185.597 27.9421 185.151C27.9421 184.706 28.1192 184.279 28.4344 183.964C28.7496 183.649 29.1771 183.472 29.6229 183.472H37.684C38.1292 183.473 38.5558 183.65 38.8702 183.965C39.1847 184.28 39.3613 184.707 39.3613 185.151C39.3613 185.596 39.1847 186.023 38.8702 186.338C38.5558 186.652 38.1292 186.83 37.684 186.831Z" fill="white"/>
<path d="M37.684 192.72H29.6229C29.1771 192.72 28.7496 192.543 28.4344 192.228C28.1192 191.914 27.9421 191.486 27.9421 191.041C27.9421 190.596 28.1192 190.168 28.4344 189.854C28.7496 189.539 29.1771 189.362 29.6229 189.362H37.684C38.1292 189.363 38.5558 189.54 38.8702 189.855C39.1847 190.17 39.3613 190.596 39.3613 191.041C39.3613 191.486 39.1847 191.912 38.8702 192.227C38.5558 192.542 38.1292 192.719 37.684 192.72Z" fill="white"/>
<path d="M470.828 308.928H447.395C446.894 308.929 446.4 308.817 445.949 308.599C445.498 308.382 445.102 308.066 444.791 307.674C444.483 307.292 444.266 306.846 444.156 306.368C444.046 305.891 444.045 305.395 444.155 304.917C446.387 295.077 446.246 284.849 443.746 275.074C443.588 274.431 443.626 273.755 443.856 273.133C444.085 272.511 444.496 271.972 445.035 271.586C457.084 262.927 466.574 263.178 473.24 272.334C473.54 272.751 473.74 273.233 473.823 273.74C475.604 284.438 475.702 295.349 474.115 306.078C474.005 306.869 473.611 307.594 473.007 308.118C472.402 308.642 471.629 308.93 470.828 308.928Z" fill="#E6E6E6"/>
<path d="M463.563 285.481H455.502C455.057 285.48 454.631 285.303 454.316 284.988C454.002 284.673 453.825 284.246 453.825 283.802C453.825 283.357 454.002 282.93 454.316 282.615C454.631 282.3 455.057 282.123 455.502 282.122H463.563C464.009 282.122 464.437 282.299 464.752 282.614C465.067 282.929 465.244 283.356 465.244 283.802C465.244 284.247 465.067 284.674 464.752 284.989C464.437 285.304 464.009 285.481 463.563 285.481Z" fill="white"/>
<path d="M463.563 291.37H455.502C455.057 291.369 454.631 291.192 454.316 290.877C454.002 290.562 453.825 290.136 453.825 289.691C453.825 289.246 454.002 288.82 454.316 288.505C454.631 288.19 455.057 288.013 455.502 288.012H463.563C464.009 288.012 464.437 288.189 464.752 288.504C465.067 288.819 465.244 289.246 465.244 289.691C465.244 290.136 465.067 290.564 464.752 290.879C464.437 291.193 464.009 291.37 463.563 291.37Z" fill="white"/>
<path d="M463.563 297.26H455.502C455.057 297.259 454.631 297.082 454.316 296.767C454.002 296.452 453.825 296.025 453.825 295.581C453.825 295.136 454.002 294.709 454.316 294.394C454.631 294.08 455.057 293.902 455.502 293.901H463.563C464.009 293.901 464.437 294.078 464.752 294.393C465.067 294.708 465.244 295.135 465.244 295.581C465.244 296.026 465.067 296.453 464.752 296.768C464.437 297.083 464.009 297.26 463.563 297.26Z" fill="white"/>
<path d="M455.57 452.124C455.571 452.239 455.552 452.353 455.517 452.46C455.481 452.566 455.428 452.663 455.362 452.744C455.296 452.826 455.217 452.89 455.13 452.934C455.043 452.978 454.95 453 454.856 453H1.21379C1.02449 453 0.842936 452.908 0.709073 452.743C0.575211 452.579 0.5 452.356 0.5 452.124C0.5 451.892 0.575211 451.669 0.709073 451.505C0.842936 451.34 1.02449 451.248 1.21379 451.248H454.857C454.95 451.248 455.043 451.27 455.13 451.314C455.217 451.358 455.296 451.422 455.362 451.504C455.428 451.585 455.481 451.682 455.517 451.788C455.552 451.895 455.571 452.009 455.57 452.124Z" fill="#CCCCCC"/>
<path d="M147.497 398.485L146.036 378.174C136.462 373.392 125.865 371.018 115.164 371.257C130.218 382.884 129.013 406.121 139.439 422.025C142.728 426.96 147.087 431.092 152.193 434.115C157.298 437.138 163.019 438.975 168.932 439.488L181.46 446.69C182.894 437.226 182.256 427.563 179.592 418.368C176.928 409.174 172.3 400.665 166.028 393.429C162.47 389.405 158.418 385.844 153.968 382.832C151.23 390.688 147.497 398.485 147.497 398.485Z" fill="#F2F2F2"/>
<path d="M412.503 401.429L413.964 381.119C423.538 376.337 434.135 373.963 444.836 374.202C429.782 385.828 430.987 409.066 420.561 424.969C417.272 429.905 412.913 434.037 407.807 437.06C402.702 440.083 396.981 441.919 391.068 442.433L378.54 449.635C377.106 440.17 377.744 430.508 380.408 421.313C383.072 412.118 387.7 403.61 393.972 396.374C397.53 392.35 401.582 388.789 406.032 385.777C408.77 393.633 412.503 401.429 412.503 401.429Z" fill="#F2F2F2"/>
<path d="M273.369 172.227C281.1 172.227 287.368 165.965 287.368 158.239C287.368 150.514 281.1 144.252 273.369 144.252C265.637 144.252 259.369 150.514 259.369 158.239C259.369 165.965 265.637 172.227 273.369 172.227Z" fill="#FF7A3D"/>
<path d="M280.555 152.41C280.345 152.209 280.065 152.097 279.774 152.097C279.483 152.097 279.203 152.209 278.992 152.41C276.022 154.777 273.354 157.5 271.048 160.517C270.482 159.423 269.916 158.329 269.35 157.234C268.697 155.971 266.788 157.087 267.441 158.349C268.269 159.95 269.097 161.55 269.925 163.151C270.025 163.314 270.165 163.449 270.332 163.543C270.499 163.637 270.688 163.686 270.879 163.686C271.071 163.686 271.259 163.637 271.426 163.543C271.593 163.449 271.734 163.314 271.834 163.151C274.291 159.693 277.227 156.603 280.555 153.971C280.761 153.764 280.876 153.483 280.876 153.191C280.876 152.898 280.761 152.618 280.555 152.41Z" fill="white"/>
<path d="M210.728 197.903L189.617 164.778L214.063 151.697L220.479 176.97L265.687 201.379C267.472 200.737 269.405 200.628 271.251 201.065C273.096 201.502 274.775 202.466 276.082 203.84C277.389 205.213 278.267 206.937 278.61 208.801C278.954 210.665 278.746 212.589 278.014 214.337C277.282 216.086 276.057 217.584 274.488 218.648C272.918 219.713 271.073 220.298 269.176 220.333C267.28 220.368 265.414 219.851 263.807 218.844C262.199 217.838 260.92 216.386 260.124 214.666L210.728 197.903Z" fill="#A0616A"/>
<path d="M174.193 125.047C167.56 134.778 191.133 170.148 191.133 170.148C192.281 167.675 203.258 195.448 205.097 193.808C210.323 189.145 218.503 176.157 223.05 175.578C225.65 175.246 217.019 156.82 217.019 156.82C217.019 156.82 213.074 145.94 207.722 132.041C206.281 128.084 203.862 124.555 200.69 121.783C197.517 119.01 193.694 117.086 189.577 116.187C189.577 116.187 180.827 115.316 174.193 125.047Z" fill="#3F3D56"/>
<path d="M174.517 442.078L184.543 442.078L189.313 403.438L174.515 403.439L174.517 442.078Z" fill="#A0616A"/>
<path d="M171.96 438.808L174.782 438.807L185.799 434.331L191.704 438.807H191.705C195.042 438.807 198.243 440.132 200.602 442.489C202.962 444.847 204.288 448.045 204.288 451.379V451.787L171.96 451.789L171.96 438.808Z" fill="#2F2E41"/>
<path d="M221.096 442.078L231.122 442.078L235.892 403.438L221.094 403.439L221.096 442.078Z" fill="#A0616A"/>
<path d="M218.539 438.808L221.361 438.807L232.378 434.331L238.283 438.807H238.284C241.621 438.807 244.822 440.132 247.181 442.489C249.541 444.847 250.867 448.045 250.867 451.379V451.787L218.539 451.789L218.539 438.808Z" fill="#2F2E41"/>
<path d="M225.436 230.835L160.222 232.464C147.837 239.186 147.649 253.733 151.707 271.006C151.707 271.006 150.337 281.272 153.077 284.009C155.817 286.747 157.187 286.747 155.817 291.538C154.447 296.329 161.685 304.154 160.806 305.032C159.927 305.91 157.872 310.701 157.872 310.701L164.722 349.713C164.722 349.713 169.517 417.469 170.887 418.838C172.256 420.207 173.626 418.838 172.256 422.26C170.887 425.682 169.517 424.313 170.887 425.682C172.1 426.989 173.243 428.36 174.311 429.788H190.872C190.872 429.788 192.121 422.944 192.121 422.26C192.121 421.575 193.491 417.469 193.491 416.785C193.491 416.1 192.28 414.89 192.28 414.89C191.862 413.499 191.579 412.071 191.436 410.625C191.436 409.256 187.326 356.557 187.326 356.557L195.546 288.116L215.411 355.188C215.411 355.188 215.411 414.047 216.78 415.416C218.15 416.785 218.15 416.1 217.465 418.838C216.78 421.575 214.041 420.891 216.095 422.944C218.15 424.997 218.835 421.575 218.15 424.997L217.465 428.419L238.015 428.713C238.015 428.713 240.755 422.944 239.385 420.891C238.015 418.838 238.097 419.398 239.769 416.038C241.44 412.678 242.125 411.994 241.44 411.309C240.755 410.625 240.755 406.985 240.755 406.985L237.33 341.5C237.33 341.5 236.645 272.375 236.645 270.321C236.593 269.265 236.788 268.211 237.214 267.242V264.455L234.59 254.58L225.436 230.835Z" fill="#2F2E41"/>
<path d="M186.261 95.3482C197.452 95.3482 206.523 86.2841 206.523 75.103C206.523 63.922 197.452 54.8579 186.261 54.8579C175.071 54.8579 165.999 63.922 165.999 75.103C165.999 86.2841 175.071 95.3482 186.261 95.3482Z" fill="#A0616A"/>
<path d="M196.392 108.729C200.757 111.322 203.369 116.086 204.868 120.934C207.643 129.909 209.313 139.189 209.842 148.568L211.426 176.648L231.034 236.437C214.04 250.805 150.162 239.702 150.162 239.702C150.162 239.702 148.201 239.049 150.162 237.09C152.122 235.131 154.031 236.867 152.071 234.908C150.11 232.948 151.461 235.131 152.115 233.172C152.769 231.213 152.115 232.519 151.461 231.866C150.808 231.212 156.521 225.335 156.521 225.335L151.293 191.015L144.756 121.79C152.6 111.994 168.374 106.219 168.374 106.219L172.45 98.889L192.829 100.518L196.392 108.729Z" fill="#3F3D56"/>
<path d="M202.964 64.3472C204.539 65.5208 205.706 67.1583 206.3 69.0293C206.528 65.9718 206.543 62.902 206.344 59.8425C206.105 57.6926 204.59 57.209 202.836 56.6486C201.252 56.1423 199.46 55.5705 198.978 53.4834C192.609 47.2924 181.521 47.6046 173.933 49.7641C169.758 50.9524 167.355 52.4792 167.14 53.3736L167.096 53.5577L166.926 53.6424C163.708 55.2503 163.081 60.3277 163.122 64.3039C163.201 71.7953 165.79 80.3036 167.248 80.9948C167.325 81.0314 167.345 81.017 167.378 80.9892C169.574 79.2358 172.253 81.1225 173.431 82.1481C174.125 77.4921 176.361 73.2029 179.782 69.9655C183.202 66.7281 187.609 64.7293 192.3 64.2884C193.832 64.1405 195.352 63.8858 196.848 63.5264C197.607 63.3302 198.387 63.2279 199.171 63.2218C200.521 63.2013 201.845 63.594 202.964 64.3472Z" fill="#2F2E41"/>
<path d="M328.749 246.967L367.727 207.42L377.996 175.791L361.47 169.112C353.284 177.363 344.857 202.62 344.857 202.62L318.254 238.295C318.041 238.374 317.83 238.457 317.621 238.556C316.396 239.133 315.341 240.017 314.558 241.121C313.775 242.226 313.29 243.513 313.151 244.859C313.011 246.205 313.221 247.565 313.761 248.806C314.301 250.047 315.152 251.128 316.232 251.944C317.313 252.761 318.585 253.285 319.928 253.467C321.27 253.648 322.636 253.48 323.895 252.98C325.153 252.479 326.261 251.663 327.112 250.61C327.962 249.557 328.526 248.302 328.749 246.967Z" fill="#FFB8B8"/>
<path d="M356.962 172.73L377.861 178.771L377.939 178.756C385.62 177.265 391.697 164.51 395.442 154.072C396.674 150.629 396.551 146.848 395.099 143.492C393.648 140.135 390.974 137.455 387.621 135.993C385.139 134.931 382.41 134.584 379.741 134.99C377.073 135.397 374.571 136.541 372.519 138.294L362.1 147.259L356.962 172.73Z" fill="#FF7A3D"/>
<path d="M339.082 440.903L327.843 440.903L322.497 397.589L339.084 397.589L339.082 440.903Z" fill="#FFB8B8"/>
<path d="M341.949 437.237L338.786 437.237L326.435 432.218L319.815 437.236H319.814C316.074 437.236 312.486 438.721 309.841 441.364C307.195 444.007 305.709 447.592 305.709 451.329V451.787L341.948 451.789L341.949 437.237Z" fill="#2F2E41"/>
<path d="M388.952 440.903L377.713 440.903L372.366 397.589L388.954 397.589L388.952 440.903Z" fill="#FFB8B8"/>
<path d="M391.819 437.237L388.656 437.237L376.305 432.218L369.685 437.236H369.684C365.944 437.236 362.356 438.721 359.711 441.364C357.065 444.007 355.579 447.592 355.579 451.329V451.787L391.819 451.789L391.819 437.237Z" fill="#2F2E41"/>
<path d="M406.09 254.333C406.09 254.333 407.402 270.068 404.121 285.147C400.84 300.227 400.84 342.696 400.84 342.696L393.622 425.453L371.968 423.486L366.063 285.148L345.065 331.697L347.033 338.254L344.411 339.893C344.411 339.893 346.377 352.678 345.065 352.678C343.752 352.678 340.471 354.644 340.471 354.644L343.096 422.174L320.786 421.519L312.912 326.452L321.442 272.035L322.098 261.545L325.051 261.666L326.555 257.283L329.316 249.743L406.09 254.333Z" fill="#2F2E41"/>
<path d="M407.224 257.638L407.341 257.474C413.587 248.737 404.193 227.742 402.776 224.699L408.744 222.764L407.4 211.351L406.763 206.262L411.324 201.705L411.337 201.592L413.962 178.645L417.778 163.403C419.216 157.642 419.093 151.601 417.423 145.903C415.752 140.204 412.594 135.052 408.273 130.976L399.451 122.665L388.731 106.816H371.442L365.515 118.003C359.768 119.33 354.669 122.63 351.106 127.327C347.543 132.024 345.743 137.821 346.018 143.709L347.362 173.05L342.102 209.582L342.099 216.193L336.18 222.766L337.473 229.222L332.968 231.151L330.979 240.425C330.156 241.51 324.723 248.748 324.723 250.727C324.723 251.024 324.942 251.311 325.413 251.63C329.116 254.135 349.581 259.242 358.638 255.621C368.286 251.766 406.638 257.548 407.025 257.607L407.224 257.638Z" fill="#FF7A3D"/>
<path d="M377.853 101.699C390.498 101.699 400.749 91.4571 400.749 78.8225C400.749 66.188 390.498 55.9457 377.853 55.9457C365.208 55.9457 354.957 66.188 354.957 78.8225C354.957 91.4571 365.208 101.699 377.853 101.699Z" fill="#FFB8B8"/>
<path d="M375.66 102.07C379.206 102.034 382.742 101.695 386.23 101.057C389.683 100.262 397.303 94.3758 399.379 90.8982C400.922 88.3144 401.848 84.3179 402.353 81.4204C403.035 77.5857 402.904 73.6506 401.967 69.87C401.031 66.0893 399.31 62.5473 396.916 59.4734C395.993 58.1856 394.739 57.171 393.287 56.5368C393.158 56.4904 393.026 56.4498 392.893 56.4155C390.787 55.9197 388.878 54.8064 387.411 53.2186C387.126 52.8972 386.818 52.5967 386.49 52.3194C384.844 51.0023 382.909 50.0932 380.843 49.6664C377.507 48.8658 372.733 49.8691 366.657 52.6511C363.604 54.0487 360.216 53.6588 357.604 53.1629C357.458 53.1386 357.308 53.153 357.169 53.2046C357.03 53.2563 356.906 53.3435 356.811 53.4575C355.733 54.5224 354.292 55.1401 352.776 55.1865C351.849 55.2512 350.908 56.5605 349.774 58.2655C349.517 58.6526 349.217 59.1043 348.999 59.3799L348.955 58.8623L348.445 59.4542C347.643 60.3844 347.09 61.5024 346.837 62.7038C346.584 63.9052 346.64 65.1511 346.998 66.3254C347.357 67.4997 348.007 68.5643 348.888 69.4199C349.769 70.2756 350.853 70.8945 352.038 71.219C352.978 71.4432 353.939 71.5708 354.905 71.6C355.491 71.6374 356.097 71.6762 356.678 71.7617C358.547 72.0941 360.298 72.905 361.76 74.1154C363.221 75.3257 364.344 76.894 365.018 78.6672C365.177 79.077 365.428 79.4448 365.752 79.7422C366.076 80.0395 366.464 80.2585 366.886 80.3823C367.308 80.506 367.753 80.5312 368.187 80.4559C368.62 80.3805 369.03 80.2067 369.386 79.9478C369.977 79.4627 370.677 79.1278 371.426 78.9714C372.175 78.8151 372.951 78.8421 373.687 79.0501C374.327 79.3845 374.833 79.9286 375.119 80.5912C375.465 81.3288 376.023 81.9465 376.723 82.3657C379.106 83.5169 379.407 88.8814 378.678 93.3786C377.975 97.7135 376.446 100.876 374.959 101.068C373.815 101.217 373.685 101.302 373.608 101.506L373.538 101.69L373.671 101.856C374.311 102.07 374.989 102.142 375.66 102.07Z" fill="#2F2E41"/>
<path d="M356.664 175.177L345.658 161.166C334.448 164.25 314.557 181.965 314.557 181.965L273.706 199.678C272.343 199.449 270.943 199.583 269.648 200.066C268.353 200.549 267.208 201.365 266.329 202.431C265.45 203.497 264.867 204.776 264.639 206.138C264.412 207.501 264.548 208.899 265.033 210.193C265.518 211.486 266.336 212.629 267.404 213.506C268.472 214.384 269.753 214.964 271.117 215.19C272.481 215.416 273.88 215.278 275.174 214.792C276.468 214.305 277.611 213.487 278.488 212.419L332 197.502L356.664 175.177Z" fill="#FFB8B8"/>
<path d="M354.026 178.38L371.391 159.038L372.356 145.333C372.535 142.642 371.958 139.954 370.688 137.574C369.419 135.193 367.509 133.215 365.174 131.862C361.996 130.05 358.247 129.511 354.686 130.354C351.126 131.198 348.018 133.36 345.993 136.405C339.857 145.645 333.256 158.138 336.652 165.181L336.687 165.252L354.026 178.38Z" fill="#FF7A3D"/>
<path d="M193.973 251.079L148.839 227.984C145.629 226.341 144.566 221.984 146.469 218.271L175.897 160.859C177.8 157.146 181.96 155.462 185.17 157.105L230.304 180.2C233.514 181.843 234.577 186.2 232.674 189.913L203.246 247.325C201.343 251.038 197.183 252.722 193.973 251.079Z" fill="#E6E6E6"/>
<path d="M186.261 240.462L155.597 224.771C152.59 223.232 151.594 219.151 153.377 215.674L177.825 167.978C179.607 164.5 183.504 162.923 186.51 164.461L223.546 183.413C226.553 184.952 227.549 189.032 225.766 192.51L212.485 218.421C204.545 233.911 199.654 247.315 186.261 240.462Z" fill="white"/>
<path d="M201.422 214.415L174.262 200.517C173.93 200.28 173.694 199.933 173.597 199.537C173.501 199.141 173.55 198.724 173.736 198.361C173.922 197.998 174.232 197.715 174.61 197.562C174.988 197.409 175.408 197.397 175.794 197.528L202.954 211.426C203.286 211.662 203.522 212.01 203.619 212.406C203.716 212.802 203.666 213.219 203.481 213.582C203.295 213.944 202.984 214.228 202.607 214.381C202.229 214.534 201.808 214.546 201.422 214.415Z" fill="#FF7A3D"/>
<path d="M177.433 209.595L171.235 206.423C170.903 206.186 170.667 205.839 170.57 205.443C170.473 205.047 170.523 204.63 170.709 204.267C170.894 203.904 171.205 203.621 171.583 203.467C171.96 203.314 172.381 203.302 172.767 203.433L178.965 206.605C179.297 206.842 179.533 207.19 179.63 207.585C179.726 207.981 179.677 208.399 179.491 208.761C179.305 209.124 178.995 209.408 178.617 209.561C178.239 209.714 177.819 209.726 177.433 209.595Z" fill="#FF7A3D"/>
<path d="M185.383 221.118L168.207 212.329C167.875 212.093 167.639 211.745 167.543 211.349C167.446 210.953 167.495 210.536 167.681 210.173C167.867 209.81 168.177 209.527 168.555 209.374C168.933 209.221 169.354 209.209 169.74 209.34L186.916 218.129C187.248 218.365 187.484 218.713 187.58 219.109C187.677 219.505 187.628 219.922 187.442 220.285C187.256 220.647 186.946 220.931 186.568 221.084C186.19 221.237 185.769 221.249 185.383 221.118Z" fill="#FF7A3D"/>
<path d="M212.17 193.447L185.01 179.549C184.678 179.312 184.442 178.964 184.345 178.568C184.249 178.173 184.298 177.755 184.484 177.393C184.67 177.03 184.98 176.746 185.358 176.593C185.736 176.44 186.156 176.428 186.542 176.559L213.702 190.458C214.034 190.694 214.27 191.042 214.367 191.438C214.463 191.834 214.414 192.251 214.228 192.614C214.043 192.976 213.732 193.26 213.354 193.413C212.977 193.566 212.556 193.578 212.17 193.447Z" fill="#FF7A3D"/>
<path d="M188.181 188.626L181.983 185.455C181.651 185.218 181.415 184.87 181.318 184.474C181.221 184.079 181.271 183.661 181.456 183.299C181.642 182.936 181.953 182.652 182.33 182.499C182.708 182.346 183.129 182.334 183.515 182.465L189.713 185.637C190.045 185.873 190.281 186.221 190.378 186.617C190.474 187.013 190.425 187.43 190.239 187.793C190.053 188.156 189.743 188.439 189.365 188.592C188.987 188.745 188.567 188.757 188.181 188.626Z" fill="#FF7A3D"/>
<path d="M196.131 200.15L178.955 191.361C178.623 191.124 178.387 190.776 178.291 190.38C178.194 189.985 178.243 189.567 178.429 189.205C178.615 188.842 178.925 188.558 179.303 188.405C179.681 188.252 180.102 188.24 180.488 188.371L197.664 197.16C197.996 197.397 198.232 197.745 198.328 198.141C198.425 198.536 198.376 198.954 198.19 199.316C198.004 199.679 197.694 199.963 197.316 200.116C196.938 200.269 196.517 200.281 196.131 200.15Z" fill="#FF7A3D"/>
<path d="M156.573 201.097L146.376 163.17L173.623 158.017L172.158 184.05L207.958 220.881C209.854 220.804 211.731 221.279 213.36 222.249C214.99 223.219 216.302 224.642 217.136 226.344C217.971 228.046 218.291 229.954 218.059 231.835C217.827 233.716 217.052 235.489 215.829 236.937C214.606 238.386 212.987 239.448 211.171 239.993C209.354 240.538 207.418 240.544 205.598 240.009C203.778 239.474 202.154 238.421 200.922 236.979C199.691 235.538 198.906 233.769 198.663 231.89L156.573 201.097Z" fill="#A0616A"/>
<path d="M143.588 120.647C134.34 127.942 146.21 168.748 146.21 168.748C148.048 166.733 150.184 196.517 152.43 195.503C158.815 192.62 170.517 182.681 175.028 183.491C177.608 183.955 174.905 163.79 174.905 163.79C174.905 163.79 174.408 152.229 173.474 137.366C173.288 133.159 172.039 129.067 169.845 125.472C167.65 121.877 164.581 118.895 160.923 116.804C160.923 116.804 152.837 113.352 143.588 120.647Z" fill="#3F3D56"/>
<path d="M297.476 285.279L272.848 273.658C272.321 273.411 271.857 273.048 271.491 272.596C271.124 272.144 270.865 271.616 270.733 271.049C270.599 270.496 270.593 269.919 270.715 269.362C270.836 268.806 271.082 268.284 271.434 267.836C278.569 258.726 283.467 248.072 285.738 236.729C285.91 235.861 286.377 235.078 287.062 234.516C287.746 233.953 288.604 233.645 289.49 233.644C302.051 233.687 311.439 238.27 317.392 247.263C317.706 247.731 317.914 248.262 318.001 248.818C318.089 249.374 318.054 249.943 317.899 250.485C314.452 262.355 309.207 273.628 302.346 283.913C301.837 284.69 301.063 285.257 300.168 285.508C299.272 285.759 298.316 285.678 297.476 285.279Z" fill="#E6E6E6"/>
<path d="M304.722 268.981L285.89 260.096C285.421 259.875 285.06 259.477 284.885 258.989C284.71 258.502 284.736 257.965 284.958 257.497C285.179 257.029 285.577 256.668 286.065 256.493C286.553 256.318 287.09 256.344 287.558 256.566L306.39 265.451C306.622 265.56 306.83 265.714 307.002 265.904C307.175 266.094 307.308 266.316 307.395 266.557C307.481 266.798 307.519 267.054 307.507 267.31C307.495 267.566 307.432 267.817 307.322 268.049C307.213 268.281 307.059 268.489 306.869 268.661C306.679 268.833 306.457 268.966 306.215 269.053C305.974 269.139 305.717 269.178 305.461 269.165C305.205 269.153 304.954 269.09 304.722 268.981Z" fill="white"/>
<path d="M307.647 262.791L288.815 253.906C288.347 253.685 287.985 253.287 287.811 252.799C287.636 252.312 287.662 251.775 287.883 251.307C288.104 250.839 288.503 250.478 288.99 250.303C289.478 250.129 290.015 250.155 290.484 250.376L309.315 259.261C309.784 259.482 310.145 259.88 310.32 260.367C310.495 260.854 310.469 261.391 310.248 261.859C310.026 262.327 309.628 262.688 309.14 262.863C308.653 263.038 308.116 263.012 307.647 262.791Z" fill="white"/>
<path d="M282.484 68.4772L280.731 68.6691C272.915 37.9813 257.766 16.7211 236.919 7.18651C210.417 -4.93361 177.647 3.20528 144.644 30.1043C111.474 57.1406 82.1096 99.8462 61.9609 150.356L60.26 149.579C80.4972 98.8479 110.012 55.9359 143.368 28.7493C176.892 1.42525 210.331 -6.77333 237.526 5.66415C258.971 15.4719 274.517 37.1924 282.484 68.4772Z" fill="#F2F2F2"/>
<path d="M89.0888 108.444C84.5046 118.093 80.1443 128.09 76.1289 138.155C53.0219 196.081 41.3124 255.238 42.2693 309.235L40.4633 309.042C39.5054 254.845 51.2487 195.484 74.428 137.378C78.455 127.283 82.8277 117.259 87.4251 107.583L89.0888 108.444Z" fill="#F2F2F2"/>
<path d="M88.222 148.246C83.6378 157.895 79.2775 167.891 75.262 177.957C52.1551 235.882 40.4455 295.04 41.4024 349.036L39.5965 348.844C38.6386 294.646 50.3819 235.285 73.5612 177.179C77.5881 167.085 81.9609 157.06 86.5583 147.384L88.222 148.246Z" fill="#F2F2F2"/>
<path d="M39.6834 162.721C41.6798 159.723 40.4981 155.431 37.0442 153.135C33.5902 150.839 29.1719 151.408 27.1755 154.406C25.1792 157.404 26.3608 161.696 29.8147 163.992C33.2687 166.288 37.687 165.719 39.6834 162.721Z" fill="#CCCCCC"/>
<path d="M464.783 270.992C466.78 267.994 465.598 263.702 462.144 261.406C458.69 259.11 454.272 259.679 452.275 262.678C450.279 265.676 451.461 269.967 454.915 272.263C458.369 274.559 462.787 273.99 464.783 270.992Z" fill="#CCCCCC"/>
</g>
<defs>
<clipPath id="clip0_10_400">
<rect width="559" height="453" fill="white" transform="translate(0.5)"/>
</clipPath>
</defs>
</svg>
